<?xml version="1.0" encoding="iso-8859-1"?>
<!-- Generator: Adobe Illustrator 19.0.0, SVG Export Plug-In . SVG Version: 6.00 Build 0)  -->
<svg version="1.1" id="Layer_1" xmlns="http://www.w3.org/2000/svg" xmlns:xlink="http://www.w3.org/1999/xlink" x="0px" y="0px"
	 viewBox="0 0 460 460" style="enable-background:new 0 0 460 460;" xml:space="preserve">
<g id="XMLID_1101_">
	<g>
		<g>
			<path d="M196.664,284.046h-12.638v19.601h13.282c1.548,0,2.986-0.709,4.32-2.127c1.332-1.419,1.999-3.976,1.999-7.673
				c0-3.782-0.774-6.361-2.321-7.738C199.759,284.735,198.212,284.046,196.664,284.046z"/>
			<path d="M101.623,283.917c-13.479,0-20.891,10.865-20.891,24.114c0,13.276,7.651,24.115,21.02,24.115
				c13.567,0,20.892-10.954,20.892-24.373C122.644,293.249,113.895,283.917,101.623,283.917z"/>
			<path d="M426.5,193.445h-37.325L244.143,48.413c-3.751-3.75-8.838-5.858-14.143-5.858c-5.304,0-10.392,2.108-14.142,5.858
				L70.826,193.445H33.5c-18.501,0-33.5,14.998-33.5,33.5v157c0,18.501,14.998,33.5,33.5,33.5h393c18.501,0,33.5-14.999,33.5-33.5
				v-157C460,208.443,445.001,193.445,426.5,193.445z M230,90.839l102.605,102.606h-205.21L230,90.839z M101.494,354.456
				c-26.824,0-46.295-22.292-46.295-46.682c0-24.589,19.982-46.166,46.811-46.166c27.379,0,46.167,22.746,46.167,46.682
				C148.177,332.569,128.293,354.456,101.494,354.456z M198.985,325.57h-14.959v28.112H158.88v-91.559h39.461
				c17.911,0,30.82,16.145,30.82,31.724C229.161,309.726,217.421,325.57,198.985,325.57z M304.47,353.682h-65.252v-91.559h64.091
				v21.923h-38.944v12.896h33.271v20.375h-33.271v14.442h40.105V353.682z M377.714,353.682l-36.365-45.006v45.006h-25.147v-91.559
				h19.602l36.752,46.553v-46.553h25.146v91.559H377.714z"/>
		</g>
	</g>
</g>
<g>
</g>
<g>
</g>
<g>
</g>
<g>
</g>
<g>
</g>
<g>
</g>
<g>
</g>
<g>
</g>
<g>
</g>
<g>
</g>
<g>
</g>
<g>
</g>
<g>
</g>
<g>
</g>
<g>
</g>
</svg>
