<svg width="133" height="130" viewBox="0 0 133 130" fill="none" xmlns="http://www.w3.org/2000/svg">
<path d="M81.8436 40.0169C82.4007 40.6067 82.4155 41.5244 81.8773 42.1317L74.6929 50.2387L77.8377 53.0256L85.0222 44.9186C85.5602 44.3115 86.4732 44.2157 87.1258 44.698C88.4506 45.6773 90.3456 45.4772 91.4399 44.2424C92.616 42.9152 92.4931 40.8784 91.1659 39.702C90.5604 39.1656 89.7812 38.8786 88.972 38.894C88.1567 38.9102 87.4659 38.2978 87.3832 37.4863C87.3015 36.6811 86.923 35.9419 86.3179 35.4057L86.3176 35.4054C84.9898 34.2287 82.9535 34.3517 81.7772 35.6791C80.6829 36.9142 80.7121 38.8195 81.8436 40.0169Z" fill="#F4E5D4"/>
<path d="M46.374 89.6251C51.0154 92.5711 56.7457 93.1116 61.9432 91.3849C56.7457 93.1116 51.0154 92.5708 46.374 89.6251Z" fill="#EC6214"/>
<path d="M77.8884 57.2562C75.8328 62.3442 75.5115 72.3579 75.4781 73.6659C75.2692 77.7901 73.7043 81.8068 71.0501 85.0682C73.7044 81.8069 75.2693 77.7902 75.4781 73.6659C75.5117 72.358 75.8328 62.3442 77.8884 57.2562Z" fill="#EC6214"/>
<path d="M66.1164 89.424C65.5856 89.7547 65.0428 90.0577 64.4902 90.3331C65.0428 90.0577 65.5856 89.7547 66.1164 89.424Z" fill="#EC6214"/>
<path d="M64.4902 90.3331C63.9374 90.6084 63.3748 90.8563 62.8043 91.0761C63.3746 90.8561 63.9374 90.6084 64.4902 90.3331Z" fill="#EC6214"/>
<path d="M42.2262 85.9777C42.4723 86.2727 42.7318 86.558 42.9984 86.8378C42.7319 86.5579 42.4722 86.2729 42.2262 85.9777Z" fill="#EC6214"/>
<path d="M40.6821 83.8083C40.8847 84.1449 41.1023 84.4725 41.3277 84.795C41.1023 84.4725 40.8844 84.1449 40.6821 83.8083Z" fill="#EC6214"/>
<path d="M40.0846 82.7244C40.2708 83.0899 40.4664 83.4504 40.6777 83.8017C40.4665 83.4502 40.2706 83.0901 40.0846 82.7244Z" fill="#EC6214"/>
<path d="M38.1429 75.1636C38.2076 76.8809 38.5055 78.541 39.0107 80.1141C38.8839 79.7189 38.7676 79.3192 38.6676 78.9133C39.1184 79.7393 39.6741 80.4862 40.254 81.2321C41.0359 82.351 41.988 83.3426 43.0318 84.2676L43.1125 84.3391C50.6382 91.0084 62.4239 90.0443 69.4291 82.1396C72.4138 78.7713 74.1721 74.5027 74.3948 70.1034C74.4244 68.9485 75.3664 60.2984 76.7175 55.0918L71.0796 50.0955C66.5264 52.4644 55.7888 54.8602 54.4968 55.0506C50.1559 55.8004 46.1173 58.0738 43.1325 61.442C39.7302 65.2814 37.9548 70.1585 38.1429 75.1636ZM48.2054 74.8372C48.6181 74.812 49.0308 74.9547 49.3385 75.2274C49.648 75.5017 49.8388 75.8941 49.8639 76.3069C49.8887 76.7168 49.7462 77.1293 49.472 77.4387C49.1991 77.7467 48.8056 77.9393 48.3956 77.9638C47.9828 77.9887 47.5704 77.8465 47.2607 77.572C46.953 77.2993 46.7619 76.9067 46.7371 76.4941C46.7107 76.0828 46.8543 75.6688 47.1272 75.3608C47.4014 75.0514 47.794 74.8604 48.2054 74.8372ZM43.1607 78.5489C43.5737 78.524 43.9875 78.6677 44.2955 78.9407C44.6032 79.2134 44.7945 79.6058 44.8191 80.0186C44.8441 80.4314 44.7018 80.844 44.429 81.1519C44.1548 81.4613 43.7623 81.6522 43.3494 81.677C42.9381 81.7006 42.5254 81.558 42.2177 81.2853C41.9082 81.011 41.7173 80.6188 41.691 80.2073C41.6675 79.7958 41.8101 79.3835 42.0843 79.0741C42.3572 78.7662 42.7493 78.575 43.1607 78.5489ZM42.7509 71.7559C43.1635 71.7309 43.5763 71.8734 43.8855 72.1475C44.1935 72.4204 44.3843 72.8128 44.4094 73.2256C44.4344 73.6385 44.2918 74.0508 44.0176 74.3602C43.7446 74.6682 43.3525 74.8593 42.9397 74.8841C42.5282 74.9076 42.1145 74.7667 41.8063 74.4936C41.4971 74.2196 41.3072 73.8255 41.2813 73.4144C41.2576 73.0031 41.4 72.5904 41.6729 72.2824C41.9471 71.973 42.3396 71.7821 42.7509 71.7559Z" fill="#EC6214"/>
<path d="M39.9966 82.5476C39.6317 81.8097 39.3168 81.0456 39.0567 80.2579C39.3171 81.0455 39.6313 81.8098 39.9966 82.5476Z" fill="#EC6214"/>
<path d="M42.2059 85.9544C41.9498 85.6461 41.7084 85.3275 41.4749 85.0037C41.7084 85.3275 41.9498 85.6461 42.2059 85.9544Z" fill="#EC6214"/>
<path d="M43.2053 87.0517C43.4847 87.3353 43.7706 87.6134 44.0711 87.8797C43.7706 87.6134 43.4845 87.3351 43.2053 87.0517Z" fill="#EC6214"/>
<path d="M42.2178 81.2853C42.5255 81.558 42.9381 81.7006 43.3494 81.677C43.7623 81.6523 44.1548 81.4613 44.429 81.1519C44.7018 80.844 44.8442 80.4314 44.8191 80.0186C44.7945 79.6059 44.6033 79.2134 44.2956 78.9407C43.9876 78.6677 43.5737 78.524 43.1607 78.5489C42.7494 78.575 42.3572 78.7662 42.0843 79.0741C41.8101 79.3835 41.6675 79.7959 41.691 80.2073C41.7173 80.6188 41.9082 81.011 42.2178 81.2853Z" fill="black"/>
<path d="M41.8064 74.4937C42.1144 74.7666 42.5281 74.9074 42.9397 74.8841C43.3526 74.8593 43.7446 74.6683 44.0176 74.3602C44.2918 74.0508 44.4345 73.6385 44.4094 73.2256C44.3844 72.8128 44.1936 72.4204 43.8856 72.1475C43.5763 71.8734 43.1635 71.7309 42.751 71.756C42.3397 71.7821 41.9472 71.973 41.673 72.2824C41.4 72.5905 41.2578 73.0029 41.2813 73.4144C41.3073 73.8255 41.4971 74.2196 41.8064 74.4937Z" fill="black"/>
<path d="M47.2607 77.572C47.5703 77.8463 47.9827 77.9885 48.3956 77.9638C48.8055 77.9392 49.1991 77.7467 49.4721 77.4387C49.7463 77.1293 49.8888 76.7168 49.8639 76.3069C49.839 75.8942 49.6481 75.5017 49.3385 75.2274C49.0308 74.9547 48.618 74.8122 48.2055 74.8372C47.794 74.8604 47.4015 75.0514 47.1273 75.3608C46.8543 75.6688 46.7107 76.0828 46.7372 76.4941C46.7619 76.9067 46.953 77.2993 47.2607 77.572Z" fill="black"/>
<path d="M35.0121 75.2809C35.2319 81.1225 37.7113 86.4296 41.9932 90.2242L42.0738 90.2957C50.8925 98.1107 64.6983 96.9859 72.8494 87.7881C76.3089 83.884 78.354 78.9173 78.608 73.8028C78.6087 73.7901 78.6091 73.7771 78.6095 73.7644C78.6942 70.3871 79.3195 60.9056 81.1688 57.6324C81.5323 56.9891 81.3969 56.1795 80.8439 55.6894L80.1825 55.1033L86.5249 47.9463C88.994 49.0207 91.9184 48.4256 93.7845 46.3199C96.1062 43.7 95.8638 39.6792 93.2435 37.3569C92.3816 36.5933 91.342 36.0858 90.2305 35.8735C89.8859 34.7954 89.2572 33.8245 88.3957 33.061L88.3951 33.0605C85.775 30.7386 81.7544 30.9812 79.4325 33.6013C77.5666 35.7068 77.327 38.6814 78.6905 41.0035L72.3481 48.1605L71.6868 47.5745C71.1337 47.0842 70.3138 47.0474 69.7189 47.4855C66.6949 49.7127 57.3552 51.4749 54.0117 51.9661C53.9989 51.9676 53.9862 51.9697 53.9738 51.9721C48.9268 52.839 44.2421 55.4664 40.7823 59.3704C36.8429 63.8161 34.7933 69.4665 35.0121 75.2809ZM54.4859 55.063C55.778 54.8727 65.6822 53.3498 70.4869 50.6971L77.8884 57.2562C75.8327 62.3442 75.5115 72.3579 75.4781 73.6659C75.2554 78.0652 73.4896 82.3419 70.5047 85.7103C63.4994 93.6152 51.6774 94.6203 44.1516 87.951L44.071 87.8796C40.4352 84.6576 38.3301 80.1416 38.1428 75.1634C37.9545 70.1585 39.7246 65.2875 43.127 61.4482C46.112 58.0802 50.145 55.8127 54.4859 55.063ZM86.3176 35.4057L86.3179 35.406C86.923 35.9422 87.3014 36.6812 87.3832 37.4866C87.4661 38.2979 88.1567 38.9105 88.972 38.8943C89.781 38.8787 90.5605 39.1658 91.1659 39.7023C92.4931 40.8787 92.616 42.9155 91.4399 44.2427C90.3455 45.4775 88.4507 45.6778 87.1258 44.6983C86.4732 44.216 85.5603 44.3116 85.0221 44.9189L77.8377 53.0259L74.6929 50.239L81.8773 42.132C82.4154 41.5248 82.4007 40.607 81.8436 40.0172C80.7121 38.8198 80.6829 36.9145 81.7772 35.6796C82.9535 34.352 84.9898 34.229 86.3176 35.4057Z" fill="black"/>
<path d="M46.5313 10.2043C46.5723 10.2132 46.6018 10.2139 46.6197 10.2062C46.6601 10.1889 46.6707 10.1578 46.6515 10.1129C46.6457 10.0995 46.6387 10.0892 46.6303 10.0821L45.6442 7.77955C45.5577 7.57757 45.4635 7.432 45.3616 7.34286C45.2596 7.25372 45.1558 7.19727 45.05 7.17352C44.9442 7.14977 44.8394 7.14686 44.7355 7.16479C44.6316 7.18272 44.5335 7.19551 44.4412 7.20319C44.3489 7.21086 44.2652 7.20154 44.1902 7.17523C44.1171 7.15342 44.0575 7.08865 44.0114 6.98092C43.8922 6.70264 43.8522 6.43559 43.8914 6.17978C43.9261 5.9259 44.012 5.69254 44.1493 5.47972C44.2885 5.27138 44.4658 5.08389 44.6812 4.91724C44.8941 4.75701 45.1151 4.62787 45.344 4.52983C45.6133 4.41449 45.8883 4.33121 46.1692 4.27999C46.4474 4.23518 46.7122 4.23332 46.9636 4.27441C47.2123 4.32192 47.4405 4.42071 47.6482 4.57079C47.8514 4.72279 48.0126 4.93794 48.1318 5.21622C48.178 5.32394 48.1837 5.41178 48.1491 5.47974C48.1163 5.55218 48.0666 5.61596 48 5.67108C47.9307 5.73261 47.856 5.79382 47.7758 5.85471C47.6912 5.91753 47.6222 5.9922 47.569 6.07874C47.5132 6.1717 47.4814 6.28357 47.4737 6.41436C47.466 6.54515 47.5054 6.71154 47.5919 6.91352L49.766 11.99C49.8506 12.1875 49.9429 12.3286 50.0429 12.4132C50.1448 12.5024 50.2477 12.5566 50.3516 12.5758C50.4529 12.6015 50.5555 12.6054 50.6593 12.5874C50.7587 12.5714 50.8536 12.5574 50.944 12.5452C51.0318 12.5394 51.1123 12.5475 51.1854 12.5693C51.2604 12.5956 51.321 12.6626 51.3671 12.7703C51.4863 13.0486 51.5321 13.3105 51.5044 13.5561C51.4787 13.8061 51.3963 14.0353 51.2571 14.2437C51.1154 14.4584 50.9246 14.6517 50.6847 14.8234C50.4468 14.9997 50.1753 15.1532 49.8701 15.2839C49.6367 15.3839 49.4283 15.4492 49.2449 15.4799C49.059 15.5171 48.8727 15.5225 48.6861 15.4962C48.497 15.4762 48.2877 15.4278 48.0582 15.3508C47.8287 15.2738 47.5511 15.1775 47.2254 15.0621L41.8277 13.119C41.8149 13.1139 41.7999 13.1097 41.7826 13.1065C41.7608 13.1052 41.7386 13.1094 41.7162 13.119C41.6893 13.1305 41.6694 13.1523 41.6565 13.1844C41.6411 13.2228 41.6498 13.2802 41.6825 13.3565L42.4264 15.0936C42.5148 15.3001 42.61 15.4479 42.7119 15.537C42.8139 15.6261 42.9177 15.6826 43.0235 15.7063C43.1293 15.7301 43.2341 15.733 43.338 15.7151C43.4418 15.6971 43.5399 15.6843 43.6323 15.6767C43.7246 15.669 43.8073 15.6761 43.8804 15.6979C43.9554 15.7242 44.016 15.7912 44.0621 15.8989C44.1813 16.1772 44.2226 16.4411 44.186 16.6905C44.1468 16.9463 44.0576 17.1783 43.9184 17.3867C43.7812 17.5995 43.6061 17.786 43.3932 17.9463C43.1777 18.1129 42.9555 18.2453 42.7266 18.3433C42.4573 18.4586 42.1835 18.5387 41.9053 18.5835C41.6244 18.6347 41.3596 18.6366 41.1109 18.5891C40.8596 18.548 40.6323 18.4515 40.4291 18.2995C40.2233 18.1539 40.0609 17.9419 39.9417 17.6636C39.8955 17.5559 39.8888 17.4658 39.9215 17.3934C39.9517 17.3274 40.0014 17.2636 40.0707 17.202C40.1373 17.1469 40.213 17.088 40.2977 17.0251C40.3778 16.9643 40.4458 16.8873 40.5016 16.7944C40.5548 16.7078 40.5844 16.5969 40.5902 16.4617C40.5934 16.3328 40.5527 16.1696 40.4681 15.9721L37.7029 9.51543C37.576 9.21919 37.4969 8.96623 37.4655 8.75657C37.4341 8.54691 37.4425 8.36803 37.4906 8.21994C37.5362 8.07826 37.6154 7.95935 37.7283 7.8632C37.8367 7.76898 37.9671 7.68919 38.1198 7.62383C38.2275 7.57769 38.3493 7.55208 38.4852 7.54698C38.6211 7.54189 38.7725 7.55411 38.9391 7.58364C39.1078 7.61766 39.2985 7.66611 39.5113 7.729C39.7242 7.79188 39.9604 7.86599 40.2201 7.95133L46.5313 10.2043Z" fill="black"/>
<path d="M28.7222 15.6881C28.5965 15.7889 28.5108 15.8889 28.4652 15.9881C28.4188 16.0942 28.4037 16.2002 28.4199 16.3062C28.4391 16.4159 28.4857 16.5287 28.5599 16.6446C28.6332 16.7672 28.7249 16.8971 28.8349 17.0342C28.9296 17.1523 29.0522 17.3012 29.2027 17.481C29.3531 17.6608 29.5006 17.8367 29.6449 18.0089C29.8175 18.2084 29.9943 18.4171 30.1754 18.635C30.2348 18.5998 30.2908 18.5643 30.3434 18.5284C30.3952 18.4993 30.4439 18.4665 30.4896 18.4298C30.6839 18.274 30.8156 18.1026 30.8847 17.9157C30.9531 17.7356 30.9708 17.5431 30.9377 17.338C30.9077 17.1367 30.8335 16.9271 30.715 16.7092C30.5957 16.4981 30.4475 16.2821 30.2703 16.0612C30.1633 15.9279 30.0534 15.8064 29.9404 15.6967C29.8304 15.5909 29.7121 15.5137 29.5855 15.465C29.4619 15.4202 29.3292 15.4108 29.1874 15.437C29.0448 15.4699 28.8897 15.5536 28.7222 15.6881ZM25.0289 16.7259C25.2231 16.5701 25.425 16.4238 25.6346 16.287C25.8433 16.1571 26.0613 16.0542 26.2884 15.9784C26.5118 15.9057 26.7447 15.8722 26.9872 15.878C27.2297 15.8838 27.4833 15.9463 27.7481 16.0657C27.6807 15.8256 27.6792 15.5701 27.7436 15.2993C27.8043 15.0316 27.9065 14.7649 28.0503 14.4994C28.1933 14.2407 28.368 13.9941 28.5743 13.7597C28.7738 13.5246 28.9821 13.32 29.1992 13.1458C29.5839 12.8372 29.9576 12.6125 30.3204 12.4717C30.6832 12.3309 31.0308 12.2649 31.3633 12.2736C31.6989 12.2861 32.0109 12.3707 32.2993 12.5274C32.5878 12.6841 32.8496 12.9091 33.0849 13.2024C33.3629 13.549 33.5686 13.9223 33.7018 14.3225C33.8343 14.7296 33.8547 15.1608 33.763 15.6161C33.6675 16.0746 33.439 16.5583 33.0775 17.0675C32.719 17.5804 32.1875 18.1195 31.4828 18.6847L30.7001 19.3126C31.0393 19.7354 31.3356 20.0735 31.5891 20.3271C31.8388 20.5838 32.0599 20.7696 32.2522 20.8844C32.4445 20.9993 32.6123 21.0525 32.7557 21.0439C32.899 21.0353 33.0355 20.9791 33.165 20.8752C33.3097 20.7591 33.3964 20.6175 33.4252 20.4505C33.4501 20.2865 33.4259 20.0963 33.3524 19.8798C33.2781 19.6702 33.1596 19.4366 32.9968 19.1791C32.8333 18.9284 32.6324 18.6546 32.3941 18.3575C32.5578 18.2261 32.7327 18.089 32.9185 17.9461C33.1037 17.8102 33.2949 17.6818 33.4922 17.561C33.6858 17.4433 33.8809 17.3432 34.0775 17.2606C34.2734 17.1848 34.4643 17.138 34.6504 17.1203C34.8395 17.1063 35.0206 17.1331 35.1938 17.2007C35.367 17.2684 35.5254 17.3917 35.669 17.5707C35.8707 17.8221 35.9969 18.1121 36.0476 18.4407C36.0946 18.7723 36.0501 19.1304 35.9141 19.5149C35.7774 19.9063 35.5392 20.3196 35.1997 20.7547C34.8632 21.1936 34.4055 21.6453 33.8266 22.1097C33.1525 22.6505 32.5166 23.0479 31.9191 23.3019C31.3216 23.5558 30.7567 23.671 30.2244 23.6473C29.6883 23.6266 29.1779 23.4664 28.6933 23.1666C28.2079 22.8737 27.7406 22.4473 27.2915 21.8874L25.6691 19.8649C25.5377 19.7012 25.4144 19.5904 25.2992 19.5326C25.1801 19.4778 25.0703 19.4501 24.9696 19.4495C24.8682 19.4557 24.7718 19.4799 24.6803 19.522C24.5889 19.564 24.5035 19.5981 24.4243 19.6241C24.3442 19.657 24.268 19.6712 24.1955 19.6667C24.1223 19.6691 24.0521 19.6284 23.9849 19.5446C23.6794 19.1638 23.6124 18.7292 23.7841 18.2409C23.9551 17.7595 24.37 17.2545 25.0289 16.7259Z" fill="black"/>
<path d="M22.5023 31.2326C22.5914 31.3009 22.7352 31.2818 22.9335 31.1754C23.1318 31.069 23.3586 30.8491 23.6139 30.5156C23.7445 30.3451 23.8417 30.1981 23.9054 30.0747C23.9662 29.9551 24.0029 29.851 24.0155 29.7623C24.0281 29.6735 24.0181 29.5982 23.9855 29.5364C23.9499 29.4784 23.8992 29.4242 23.8333 29.3737C23.7054 29.2758 23.5454 29.2517 23.3535 29.3016C23.1655 29.3544 22.9497 29.4475 22.7062 29.5808C22.4597 29.718 22.1924 29.8823 21.9044 30.0738C21.6163 30.2653 21.3102 30.4522 20.9862 30.6345C20.6659 30.8198 20.3308 30.9845 19.9807 31.1285C19.6345 31.2754 19.2815 31.371 18.9216 31.4153C18.5627 31.4664 18.2001 31.4501 17.8337 31.3664C17.4673 31.2827 17.1058 31.1043 16.7491 30.8312C16.311 30.4958 16.0102 30.1055 15.8467 29.6605C15.684 29.2224 15.6246 28.7618 15.6685 28.2788C15.7162 27.7988 15.8519 27.3123 16.0756 26.8194C16.2963 26.3304 16.5729 25.8687 16.9053 25.4345C17.2408 24.9964 17.6168 24.6017 18.0334 24.2504C18.4431 23.8999 18.8556 23.6223 19.2707 23.4174C19.6859 23.2126 20.085 23.0969 20.4681 23.0704C20.8512 23.044 21.1803 23.1361 21.4556 23.3469C21.6184 23.4715 21.7406 23.6051 21.8222 23.7475C21.9077 23.8929 21.9581 24.036 21.9733 24.1767C21.9894 24.3244 21.9753 24.4673 21.9309 24.6055C21.8866 24.7438 21.8199 24.8711 21.7308 24.9874C21.5883 25.1735 21.4498 25.3103 21.3151 25.3978C21.1804 25.4853 21.05 25.5392 20.9238 25.5594C20.7985 25.5865 20.6735 25.5892 20.5487 25.5674C20.4278 25.5487 20.3045 25.525 20.1788 25.4964C20.0531 25.4678 19.9264 25.4445 19.7986 25.4267C19.6747 25.4118 19.5452 25.4202 19.4102 25.4521C19.2789 25.4869 19.1416 25.5539 18.998 25.6531C18.8514 25.7561 18.6995 25.9104 18.5422 26.1159C18.2899 26.4454 18.1334 26.71 18.0728 26.9096C18.0093 27.1131 18.0628 27.2801 18.2334 27.4107C18.2954 27.4582 18.4 27.4461 18.5473 27.3743C18.6954 27.3094 18.8736 27.2091 19.082 27.0734C19.2904 26.9378 19.5273 26.781 19.7928 26.6029C20.0582 26.4249 20.3402 26.2534 20.6388 26.0884C20.9412 25.9263 21.2561 25.78 21.5836 25.6495C21.915 25.5219 22.2469 25.4378 22.5793 25.3972C22.9156 25.3595 23.2524 25.3775 23.5896 25.4512C23.9238 25.5287 24.2479 25.6877 24.5619 25.9282C24.907 26.1923 25.1825 26.471 25.3886 26.7641C25.5986 27.0601 25.7484 27.3624 25.8381 27.6709C25.9287 27.9863 25.9641 28.3055 25.9443 28.6286C25.9245 28.9516 25.8627 29.2733 25.7589 29.5936C25.659 29.9168 25.5201 30.2348 25.3422 30.5475C25.1682 30.8631 24.9669 31.1702 24.7383 31.4688C24.3435 31.9844 23.9566 32.3893 23.5777 32.6834C23.1988 32.9775 22.8432 33.1849 22.5109 33.3056C22.1757 33.4302 21.8701 33.476 21.594 33.443C21.3218 33.4129 21.0946 33.3281 20.9124 33.1886C20.7845 33.0907 20.6831 32.97 20.6084 32.8267C20.5345 32.6902 20.4936 32.5389 20.4854 32.3728C20.4773 32.2067 20.503 32.0326 20.5624 31.8506C20.6218 31.6686 20.7228 31.4845 20.8653 31.2984C21.0256 31.0891 21.1693 30.9254 21.2965 30.8076C21.4206 30.6935 21.5333 30.6107 21.6344 30.5589C21.7364 30.5141 21.8264 30.4969 21.9045 30.5074C21.9864 30.5209 22.0622 30.5544 22.132 30.6078C22.2018 30.6613 22.2452 30.713 22.2623 30.763C22.2794 30.8129 22.2945 30.8614 22.3077 30.9084C22.3218 30.9623 22.3394 31.0157 22.3603 31.0686C22.3813 31.1216 22.4286 31.1763 22.5023 31.2326Z" fill="black"/>
<path d="M22.1558 39.7692C22.3764 39.8737 22.5506 40.0022 22.6784 40.1545C22.8084 40.3134 22.9048 40.4806 22.9676 40.6562C23.0326 40.8383 23.0683 41.0253 23.0745 41.2174C23.0831 41.416 23.0741 41.6062 23.0474 41.788C23.0207 41.9699 22.9817 42.1378 22.9304 42.2918C22.8814 42.4523 22.8307 42.5877 22.7785 42.698C22.722 42.8172 22.6473 42.9465 22.5541 43.0861C22.4633 43.2322 22.356 43.3732 22.2323 43.5091C22.1085 43.6449 21.9681 43.7703 21.8111 43.885C21.6585 44.0018 21.4922 44.0905 21.3122 44.1512C21.1346 44.2183 20.9452 44.2475 20.744 44.2386C20.5452 44.2363 20.3355 44.1829 20.1148 44.0784C19.8986 43.976 19.7244 43.8476 19.5923 43.6931C19.458 43.5431 19.3606 43.3781 19.3 43.1981C19.2372 43.0225 19.2005 42.8377 19.1898 42.6435C19.1836 42.4514 19.1938 42.2645 19.2205 42.0826C19.2472 41.9007 19.2861 41.7274 19.3372 41.5625C19.3906 41.4041 19.4455 41.2653 19.5019 41.1461C19.5542 41.0358 19.6247 40.9098 19.7134 40.7682C19.8044 40.633 19.9118 40.4975 20.0356 40.3616C20.1594 40.2257 20.2986 40.0971 20.4533 39.9759C20.6103 39.8612 20.7776 39.7702 20.9553 39.7031C21.1309 39.6404 21.3191 39.608 21.52 39.6059C21.7232 39.6103 21.9352 39.6647 22.1558 39.7692ZM11.8783 39.9261C11.7018 39.8425 11.5535 39.802 11.4334 39.8046C11.3134 39.8071 11.2101 39.8312 11.1237 39.8767C11.0397 39.9287 10.9689 39.9925 10.9116 40.068C10.8542 40.1434 10.7978 40.2113 10.7423 40.2714C10.6847 40.336 10.6223 40.3821 10.5552 40.4097C10.4925 40.4395 10.4126 40.4313 10.3155 40.3854C9.81245 40.1471 9.5717 39.7143 9.59327 39.087C9.61925 38.4618 9.86529 37.6571 10.3314 36.673C10.5571 36.1965 10.7832 35.7876 11.0096 35.4464C11.236 35.1052 11.4662 34.836 11.7001 34.6388C11.9383 34.4437 12.1771 34.3218 12.4163 34.273C12.6578 34.2307 12.9044 34.2691 13.1559 34.3883C13.253 34.4342 13.3099 34.4909 13.3266 34.5583C13.3478 34.6277 13.3526 34.703 13.3413 34.784C13.3299 34.8651 13.3132 34.9517 13.2911 35.0439C13.2691 35.1361 13.2656 35.229 13.2807 35.3226C13.3002 35.4183 13.3448 35.5123 13.4145 35.6048C13.4886 35.6993 13.6161 35.7894 13.797 35.8751L17.3317 37.5492C17.5082 37.6329 17.6565 37.6734 17.7766 37.6708C17.8967 37.6683 17.9977 37.6432 18.0797 37.5955C18.1661 37.55 18.238 37.4895 18.2953 37.414C18.3527 37.3386 18.4091 37.2707 18.4646 37.2106C18.5201 37.1504 18.5792 37.1055 18.6419 37.0757C18.7091 37.0481 18.7912 37.0573 18.8882 37.1033C19.1398 37.2224 19.3235 37.3877 19.4394 37.5993C19.5576 37.8174 19.6145 38.0794 19.6101 38.3853C19.6102 38.6932 19.5499 39.0429 19.4294 39.4342C19.3089 39.8256 19.1357 40.2595 18.91 40.7361C18.6843 41.2127 18.4824 41.5763 18.3042 41.8269C18.1261 42.0775 17.9451 42.243 17.7611 42.3234C17.5795 42.4103 17.3811 42.4243 17.1658 42.3656C16.9505 42.3068 16.6928 42.2064 16.3927 42.0643L11.8783 39.9261Z" fill="black"/>
<path d="M12.9595 63.1985C13.0401 63.3444 13.1234 63.439 13.2092 63.4824C13.2999 63.5261 13.3745 63.5494 13.433 63.5524C13.5159 63.5565 13.5912 63.5188 13.6587 63.439C13.7309 63.3645 13.8037 63.2777 13.8772 63.1787C13.9552 63.0848 14.0378 62.9985 14.1249 62.9198C14.2117 62.846 14.3136 62.812 14.4307 62.8179C14.7428 62.8336 14.9999 62.9223 15.202 63.084C15.4038 63.2506 15.5594 63.4613 15.6688 63.7162C15.778 63.9759 15.849 64.2655 15.8818 64.5849C15.9193 64.9095 15.9296 65.2375 15.913 65.5691C15.8933 65.9593 15.8456 66.326 15.7696 66.6693C15.6934 67.0175 15.5878 67.3202 15.4526 67.5774C15.3174 67.8346 15.1484 68.0363 14.9455 68.1825C14.7426 68.3288 14.507 68.3951 14.2388 68.3817C14.0681 68.3731 13.9339 68.3199 13.8361 68.2221C13.7381 68.1291 13.6565 68.0028 13.5912 67.8431C13.5305 67.6885 13.4784 67.5098 13.4348 67.3072C13.3961 67.1048 13.348 66.8946 13.2905 66.6766C13.2331 66.4586 13.1562 66.2372 13.0599 66.0123C12.9683 65.7926 12.8418 65.5858 12.6805 65.3919L11.3317 63.7767L7.28633 66.6386C7.08366 66.7799 6.925 66.9211 6.81035 67.062C6.69546 67.2078 6.60301 67.3449 6.53299 67.4734C6.46297 67.6018 6.40563 67.7212 6.36098 67.8314C6.3212 67.9418 6.27484 68.0373 6.2219 68.1177C6.16897 68.1982 6.09751 68.2581 6.00752 68.2976C5.92216 68.3422 5.79902 68.3605 5.63809 68.3524C5.09678 68.3251 4.7193 68.0055 4.50564 67.3934C4.29173 66.7862 4.21324 65.9169 4.27015 64.7855C4.2986 64.2198 4.35825 63.7143 4.44909 63.2691C4.53993 62.8239 4.66404 62.4464 4.82141 62.1365C4.9834 61.8317 5.1783 61.602 5.40609 61.4472C5.63875 61.2927 5.91114 61.2233 6.22325 61.239C6.34516 61.2451 6.43573 61.2912 6.49496 61.3773C6.55394 61.4683 6.6028 61.5661 6.64154 61.6707C6.68515 61.7756 6.72926 61.8707 6.77386 61.956C6.81821 62.0463 6.88915 62.0938 6.98668 62.0987C7.05008 62.1019 7.11945 62.0834 7.19481 62.0432C7.2748 62.0081 7.37552 61.9496 7.49698 61.8677L9.20613 60.6924C9.27198 60.6468 9.32369 60.5907 9.36127 60.5242C9.40371 60.4578 9.43665 60.3862 9.46008 60.3091C9.48327 60.237 9.49707 60.157 9.50149 60.0692C9.51053 59.9865 9.51714 59.9038 9.52131 59.8209L9.52867 59.6746L7.64141 59.5796C7.42196 59.5686 7.2498 59.5893 7.12495 59.6416C7.00009 59.694 6.90375 59.7625 6.83594 59.8471C6.76813 59.9317 6.71945 60.0246 6.68992 60.1258C6.66038 60.227 6.62878 60.3207 6.5951 60.407C6.56143 60.4933 6.5163 60.5644 6.45971 60.6202C6.408 60.6763 6.32362 60.7014 6.20658 60.6955C5.597 60.6648 5.17149 60.3281 4.93004 59.6852C4.69347 59.0427 4.60511 58.1264 4.66497 56.9365C4.69391 56.3611 4.75137 55.8506 4.83733 55.4052C4.92793 54.9648 5.04923 54.5945 5.20123 54.2941C5.35786 53.9989 5.54995 53.7763 5.77749 53.6264C6.00479 53.4814 6.26962 53.4165 6.57197 53.4317C6.68901 53.4376 6.77044 53.471 6.81626 53.532C6.86696 53.5932 6.90242 53.6659 6.92263 53.75C6.94747 53.8393 6.96964 53.9333 6.98911 54.032C7.00834 54.1357 7.04513 54.2304 7.09948 54.3163C7.15847 54.4072 7.245 54.4849 7.3591 54.5493C7.4732 54.6137 7.63997 54.6515 7.85942 54.6625L13.3749 54.9399C13.5895 54.9507 13.7568 54.9298 13.8767 54.8772C14.0016 54.8248 14.0955 54.7562 14.1584 54.6713C14.226 54.5916 14.2745 54.5012 14.3041 54.4C14.3334 54.3037 14.3624 54.2123 14.3912 54.1257C14.4246 54.0443 14.4672 53.9755 14.5189 53.9195C14.5755 53.8636 14.6623 53.8387 14.7794 53.8446C15.0817 53.8598 15.3363 53.9508 15.543 54.1176C15.7543 54.2896 15.9207 54.5302 16.042 54.8394C16.168 55.1538 16.2515 55.5344 16.2926 55.9814C16.3383 56.4335 16.3467 56.9472 16.3177 57.5227C16.2878 58.1176 16.2272 58.6426 16.1358 59.0976C16.0494 59.5528 15.9277 59.9304 15.7708 60.2306C15.6186 60.5358 15.4288 60.7609 15.2015 60.9059C14.9788 61.0561 14.7163 61.1235 14.414 61.1083C14.2969 61.1024 14.2131 61.0689 14.1624 61.0077C14.1166 60.9467 14.0812 60.8716 14.0564 60.7823C14.0364 60.6933 14.0168 60.597 13.9976 60.4934C13.9783 60.3897 13.9392 60.2924 13.8803 60.2015C13.8261 60.1107 13.7396 60.033 13.6206 59.9684C13.5065 59.904 13.3422 59.8664 13.1276 59.8556L10.8454 59.7408C10.8385 59.8773 10.8386 60.0216 10.8456 60.1735C10.8526 60.3254 10.8994 60.4646 10.9859 60.5912L12.9595 63.1985Z" fill="black"/>
<path d="M7.60997 77.3101C7.64768 77.4667 7.7017 77.5868 7.77203 77.6703C7.84825 77.7574 7.93774 77.8162 8.04051 77.8468C8.14803 77.8761 8.26996 77.8819 8.40631 77.8642C8.54855 77.85 8.70512 77.8224 8.87602 77.7812C9.02318 77.7458 9.21012 77.6983 9.43684 77.6387C9.66356 77.5791 9.88554 77.5206 10.1028 77.4633C10.3568 77.3921 10.621 77.3209 10.8951 77.2499C10.8886 77.1812 10.8803 77.1154 10.8702 77.0525C10.866 76.9932 10.857 76.9351 10.8433 76.8782C10.785 76.6361 10.686 76.4439 10.5464 76.3018C10.4126 76.1632 10.2458 76.0653 10.0462 76.0079C9.85129 75.9493 9.63001 75.9272 9.38237 75.9417C9.14062 75.9597 8.88207 76.0018 8.60673 76.0681C8.44058 76.1081 8.28384 76.1559 8.1365 76.2115C7.99391 76.2659 7.87365 76.34 7.77572 76.4339C7.68253 76.5267 7.61756 76.6428 7.58082 76.7822C7.54996 76.9252 7.55968 77.1012 7.60997 77.3101ZM6.97651 81.0937C6.91822 80.8516 6.8718 80.6066 6.83725 80.3588C6.80859 80.1146 6.80832 79.8736 6.83645 79.6358C6.86573 79.4027 6.9346 79.1777 7.04308 78.9608C7.15156 78.7438 7.31618 78.5409 7.53692 78.3522C7.29094 78.311 7.05917 78.2035 6.84159 78.0299C6.62515 77.861 6.42739 77.655 6.24832 77.4119C6.07513 77.1723 5.92643 76.9093 5.80221 76.6228C5.67438 76.3422 5.5779 76.0666 5.51275 75.796C5.39732 75.3165 5.35314 74.8827 5.38022 74.4945C5.40729 74.1063 5.49555 73.7636 5.645 73.4664C5.79919 73.1682 6.00859 72.9219 6.2732 72.7276C6.53781 72.5333 6.85289 72.3922 7.21842 72.3042C7.65041 72.2002 8.07581 72.1731 8.49462 72.2229C8.91932 72.2764 9.31817 72.4415 9.69118 72.7183C10.0653 72.9999 10.4058 73.4126 10.7125 73.9565C11.024 74.4993 11.2854 75.2098 11.4968 76.088L11.7317 77.0636C12.2586 76.9367 12.6908 76.8126 13.0282 76.6912C13.3668 76.5745 13.629 76.4536 13.8148 76.3285C14.0006 76.2034 14.1202 76.0742 14.1735 75.9408C14.2267 75.8075 14.2339 75.6601 14.1951 75.4987C14.1517 75.3183 14.0605 75.1795 13.9216 75.0824C13.7838 74.99 13.6014 74.931 13.3742 74.9053C13.1529 74.8832 12.8911 74.891 12.5888 74.9286C12.2924 74.9699 11.959 75.0351 11.5888 75.1242C11.5396 74.9201 11.49 74.7035 11.4399 74.4745C11.3956 74.2491 11.3609 74.0214 11.3357 73.7914C11.3116 73.5662 11.304 73.3471 11.313 73.134C11.3279 72.9245 11.3668 72.7318 11.43 72.5559C11.4978 72.3788 11.5992 72.2263 11.7342 72.0984C11.8691 71.9705 12.0481 71.8797 12.2713 71.826C12.5846 71.7505 12.9007 71.7598 13.2196 71.8538C13.5397 71.9525 13.8448 72.1453 14.1348 72.432C14.4307 72.7224 14.7032 73.1138 14.9524 73.6063C15.2063 74.0976 15.4201 74.7041 15.5938 75.4256C15.7961 76.2659 15.8849 77.0104 15.8603 77.6592C15.8357 78.308 15.6994 78.8681 15.4513 79.3397C15.2043 79.816 14.8421 80.2096 14.3644 80.5204C13.8927 80.8349 13.3079 81.0761 12.6101 81.2441L10.0893 81.851C9.88522 81.9001 9.73247 81.9645 9.63111 82.0442C9.5309 82.1286 9.45907 82.2162 9.41565 82.307C9.37811 82.4014 9.3589 82.4989 9.35802 82.5996C9.35714 82.7003 9.35161 82.792 9.34141 82.8748C9.3371 82.9612 9.3175 83.0363 9.2826 83.0999C9.25359 83.1672 9.18686 83.2133 9.08243 83.2385C8.60771 83.3528 8.186 83.2283 7.8173 82.8651C7.45449 82.5054 7.17422 81.915 6.97651 81.0937Z" fill="black"/>
<path d="M14.5492 91.7087C14.3714 91.8007 14.245 91.8963 14.1699 91.9957C14.0948 92.095 14.0492 92.1928 14.0331 92.2891C14.0236 92.3875 14.0293 92.4835 14.0502 92.5771C14.0755 92.6685 14.0953 92.7545 14.1095 92.8351C14.126 92.92 14.1248 92.9976 14.1062 93.0677C14.0918 93.1356 14.0369 93.1943 13.9415 93.2436C13.4472 93.4995 12.957 93.4287 12.471 93.0315C11.9894 92.6319 11.4984 91.9487 10.998 90.9816C10.7556 90.5132 10.5673 90.0856 10.4331 89.6988C10.2989 89.3119 10.2242 88.9657 10.209 88.6602C10.1982 88.3524 10.2459 88.0886 10.352 87.8687C10.4647 87.6509 10.6447 87.4781 10.8919 87.3502C10.9873 87.3008 11.0668 87.2899 11.1305 87.3174C11.1986 87.3427 11.2614 87.3844 11.319 87.4425C11.3766 87.5007 11.4354 87.5665 11.4954 87.6399C11.5553 87.7133 11.6271 87.7724 11.7107 87.8171C11.7987 87.8596 11.9005 87.8811 12.0163 87.8817C12.1364 87.88 12.2853 87.8331 12.4631 87.7411L15.9367 85.9436C16.1102 85.8539 16.2323 85.7605 16.303 85.6634C16.3737 85.5663 16.415 85.4708 16.4268 85.3767C16.4429 85.2804 16.4383 85.1865 16.4131 85.0952C16.3878 85.0038 16.368 84.9178 16.3538 84.8372C16.3396 84.7566 16.3396 84.6823 16.354 84.6144C16.3726 84.5443 16.4297 84.4845 16.5251 84.4352C16.7723 84.3073 17.0151 84.2613 17.2537 84.2973C17.4988 84.3354 17.7417 84.4489 17.9824 84.6377C18.2274 84.8243 18.469 85.0841 18.7073 85.4171C18.9456 85.7501 19.1859 86.1508 19.4283 86.6191C19.6505 87.0485 19.7844 87.4135 19.83 87.7142C19.8823 88.0171 19.8642 88.2848 19.7757 88.5176C19.9166 88.5986 20.0554 88.6862 20.1921 88.7804C20.3331 88.8724 20.4678 88.9786 20.5961 89.0991C20.7288 89.2174 20.8552 89.3554 20.9753 89.5131C21.0954 89.6709 21.2094 89.8538 21.3171 90.062C21.4517 90.3222 21.5526 90.5861 21.6196 90.8538C21.6932 91.1236 21.7154 91.3843 21.6862 91.6358C21.6612 91.8851 21.5771 92.1156 21.4337 92.3272C21.2969 92.541 21.0832 92.723 20.7927 92.8734C20.6018 92.9721 20.3985 93.0361 20.1827 93.0653C19.9669 93.0945 19.7538 93.0811 19.5434 93.025C19.3396 92.9711 19.1438 92.869 18.9561 92.7187C18.7706 92.5728 18.6128 92.374 18.4826 92.1225C18.3525 91.871 18.2872 91.6546 18.2869 91.4733C18.2866 91.2921 18.3204 91.1344 18.3884 91.0002C18.4564 90.8661 18.5432 90.7469 18.6488 90.6428C18.761 90.5408 18.86 90.4401 18.946 90.3406C19.0342 90.2455 19.0972 90.1441 19.135 90.0366C19.1751 89.9334 19.1603 89.8146 19.0908 89.6802C19.0212 89.5457 18.9579 89.4658 18.9007 89.4404C18.8479 89.4127 18.7912 89.4146 18.7305 89.446C18.6524 89.4864 18.5605 89.5532 18.4548 89.6464C18.3491 89.7396 18.2095 89.8311 18.036 89.9208L14.5492 91.7087Z" fill="black"/>
<path d="M26.6034 93.5047C26.7919 93.3496 26.9823 93.2467 27.1746 93.1959C27.3737 93.1459 27.566 93.1299 27.7516 93.1479C27.944 93.1666 28.1285 93.214 28.3049 93.2901C28.4883 93.3668 28.6565 93.456 28.8097 93.5576C28.9629 93.6592 29.0982 93.766 29.2157 93.878C29.3401 93.9906 29.441 94.0941 29.5186 94.1884C29.6024 94.2901 29.6876 94.4129 29.7742 94.5566C29.8678 94.701 29.9496 94.8581 30.0199 95.0279C30.0901 95.1978 30.1437 95.3782 30.1807 95.5691C30.2214 95.7569 30.2309 95.9451 30.2091 96.1338C30.1942 96.3231 30.14 96.5069 30.0463 96.6851C29.9596 96.864 29.822 97.0311 29.6335 97.1862C29.4487 97.3383 29.2584 97.4412 29.0624 97.495C28.8694 97.5526 28.6787 97.5705 28.49 97.5487C28.3044 97.5307 28.1215 97.4852 27.9413 97.4122C27.7648 97.3361 27.6 97.2473 27.4468 97.1457C27.2936 97.0441 27.1533 96.9351 27.0259 96.8186C26.9053 96.7029 26.8031 96.5941 26.7193 96.4923C26.6417 96.3981 26.5577 96.2806 26.4673 96.14C26.3838 96.0001 26.3069 95.8452 26.2366 95.6754C26.1664 95.5055 26.1094 95.3248 26.0655 95.1332C26.0286 94.9423 26.0175 94.7522 26.0324 94.5628C26.0504 94.3773 26.1013 94.1931 26.1849 94.0105C26.2754 93.8285 26.4149 93.6599 26.6034 93.5047ZM22.3694 102.871C22.2186 102.995 22.1188 103.112 22.07 103.222C22.0212 103.331 21.999 103.435 22.0034 103.533C22.0147 103.631 22.0422 103.722 22.0861 103.806C22.13 103.89 22.1673 103.97 22.1981 104.046C22.232 104.125 22.2472 104.201 22.2436 104.274C22.2438 104.343 22.2025 104.412 22.1195 104.48C21.6897 104.834 21.1956 104.868 20.6372 104.581C20.0825 104.291 19.4592 103.726 18.7673 102.885C18.4322 102.478 18.1584 102.1 17.9461 101.749C17.7338 101.399 17.5883 101.076 17.5094 100.781C17.4343 100.482 17.4257 100.214 17.4834 99.9771C17.548 99.7405 17.6877 99.5338 17.9026 99.3569C17.9855 99.2887 18.061 99.2613 18.1291 99.2749C18.2009 99.2853 18.2711 99.3129 18.3396 99.3577C18.4081 99.4025 18.4794 99.4545 18.5534 99.5138C18.6274 99.573 18.71 99.6157 18.8011 99.6419C18.896 99.665 19.0001 99.6647 19.1134 99.641C19.2305 99.6142 19.3663 99.5372 19.5209 99.4099L22.5407 96.9245C22.6915 96.8003 22.7913 96.6834 22.8401 96.5737C22.8889 96.4639 22.9093 96.3619 22.9011 96.2674C22.8967 96.1698 22.8725 96.079 22.8287 95.995C22.7848 95.911 22.7474 95.831 22.7166 95.7552C22.6858 95.6793 22.6703 95.6067 22.6701 95.5373C22.6737 95.4648 22.717 95.3944 22.7999 95.3262C23.0148 95.1493 23.2426 95.0535 23.4834 95.0387C23.7311 95.0246 23.9924 95.0846 24.2673 95.2188C24.5459 95.35 24.8366 95.5534 25.1394 95.829C25.4422 96.1047 25.7612 96.4461 26.0963 96.8533C26.4314 97.2605 26.6744 97.598 26.8253 97.8659C26.9763 98.1338 27.0489 98.368 27.0433 98.5687C27.0446 98.77 26.9728 98.9555 26.828 99.1253C26.6832 99.2951 26.4826 99.4855 26.2262 99.6965L22.3694 102.871Z" fill="black"/>
<path d="M36.9446 112.478L38.9508 113.587L40.0267 109.311L36.9446 112.478ZM33.0189 115.672C32.7028 115.497 32.4475 115.303 32.2531 115.089C32.0587 114.876 31.9181 114.656 31.8314 114.429C31.7513 114.201 31.7202 113.974 31.7383 113.75C31.7587 113.521 31.8256 113.304 31.9391 113.099C31.9958 112.997 32.0595 112.937 32.1301 112.92C32.2031 112.899 32.2851 112.897 32.3762 112.914C32.4673 112.931 32.5658 112.955 32.6716 112.985C32.7817 113.018 32.9012 113.034 33.0302 113.033C33.1592 113.032 33.2969 113.005 33.4434 112.952C33.5922 112.895 33.753 112.786 33.9258 112.624L38.1609 108.689C38.2405 108.616 38.3055 108.549 38.3562 108.488C38.4111 108.429 38.4527 108.374 38.481 108.322C38.5543 108.19 38.5676 108.08 38.521 107.993C38.4743 107.906 38.4132 107.825 38.3377 107.749C38.2664 107.676 38.2039 107.603 38.1501 107.528C38.0988 107.45 38.1038 107.355 38.1652 107.244C38.1818 107.214 38.1969 107.192 38.2106 107.177C38.4164 106.906 38.6686 106.727 38.9672 106.641C39.2682 106.551 39.6075 106.538 39.9852 106.601C40.3694 106.663 40.7903 106.79 41.2479 106.982C41.7055 107.173 42.1949 107.413 42.7162 107.702C43.1563 107.945 43.5677 108.195 43.9505 108.451C44.3399 108.706 44.6674 108.976 44.9331 109.262C45.1987 109.549 45.3862 109.851 45.4954 110.168C45.6046 110.485 45.6012 110.829 45.4853 111.2C45.4702 111.247 45.4579 111.28 45.4485 111.297C45.4083 111.369 45.3562 111.413 45.2922 111.428C45.2349 111.441 45.1704 111.441 45.0987 111.43C45.0271 111.418 44.9524 111.402 44.8745 111.381C44.7991 111.356 44.7232 111.342 44.6468 111.339C44.5705 111.336 44.4944 111.352 44.4186 111.388C44.3494 111.423 44.2864 111.491 44.2297 111.594C44.1801 111.683 44.1355 111.809 44.096 111.972L42.854 117.562C42.8033 117.785 42.7911 117.974 42.8174 118.128C42.8438 118.282 42.8886 118.413 42.9519 118.52C43.0195 118.63 43.0944 118.722 43.1766 118.795C43.263 118.871 43.3376 118.943 43.4003 119.011C43.4631 119.079 43.505 119.15 43.526 119.223C43.5493 119.291 43.5327 119.377 43.4759 119.479C43.1806 120.014 42.6911 120.248 42.0076 120.182C41.3264 120.112 40.4645 119.789 39.4219 119.213C38.9177 118.934 38.4844 118.658 38.122 118.385C37.7663 118.11 37.4869 117.838 37.2839 117.57C37.0832 117.297 36.9655 117.026 36.9309 116.755C36.9005 116.487 36.9585 116.221 37.105 115.956C37.1546 115.866 37.2105 115.811 37.2726 115.789C37.3413 115.766 37.4115 115.76 37.4831 115.772C37.5571 115.779 37.6352 115.795 37.7173 115.818C37.7994 115.841 37.8786 115.854 37.9549 115.857C38.0337 115.856 38.1088 115.836 38.1803 115.798C38.2585 115.757 38.3295 115.679 38.3933 115.564C38.4477 115.466 38.4941 115.346 38.5328 115.206L38.6748 114.707L36.0726 113.268L35.6742 113.625C35.5288 113.756 35.4278 113.874 35.3711 113.976C35.3167 114.074 35.2934 114.162 35.3012 114.239C35.3155 114.314 35.3444 114.383 35.3877 114.446C35.4333 114.504 35.4877 114.562 35.5509 114.62C35.6141 114.677 35.6685 114.735 35.7141 114.794C35.7621 114.848 35.7924 114.909 35.8048 114.978C35.8216 115.048 35.8063 115.126 35.7591 115.212C35.6456 115.417 35.4975 115.589 35.3147 115.728C35.1343 115.862 34.9239 115.955 34.6835 116.006C34.4498 116.056 34.1909 116.055 33.9067 116.004C33.6268 115.955 33.3309 115.844 33.0189 115.672Z" fill="black"/>
<path d="M60.0799 120.7C59.9956 121.067 59.8864 121.433 59.7523 121.798C59.6229 122.164 59.463 122.51 59.2726 122.837C59.0821 123.164 58.8608 123.461 58.6088 123.729C58.3568 123.997 58.0684 124.216 57.7435 124.387C57.4245 124.554 57.064 124.661 56.6622 124.709C56.2652 124.758 55.8263 124.727 55.3457 124.616C54.8033 124.492 54.3477 124.327 53.979 124.122C53.6151 123.918 53.3138 123.703 53.075 123.478L52.6923 125.141C52.6463 125.341 52.6374 125.499 52.6657 125.616C52.6929 125.737 52.7385 125.833 52.8026 125.903C52.8656 125.977 52.9401 126.034 53.0261 126.074C53.1158 126.12 53.196 126.163 53.2666 126.205C53.3373 126.246 53.3939 126.294 53.4364 126.349C53.4777 126.409 53.4864 126.491 53.4623 126.596C53.3375 127.138 52.9669 127.464 52.3507 127.572C51.7333 127.686 50.8941 127.62 49.833 127.376C49.3238 127.259 48.8783 127.126 48.4965 126.978C48.1147 126.83 47.803 126.661 47.5613 126.47C47.3186 126.284 47.1482 126.077 47.0504 125.849C46.9562 125.627 46.9403 125.38 47.0027 125.109C47.0268 125.004 47.0681 124.934 47.1267 124.897C47.1889 124.866 47.2608 124.848 47.3424 124.841C47.4288 124.836 47.517 124.834 47.607 124.835C47.7018 124.836 47.7938 124.818 47.8831 124.778C47.976 124.744 48.0583 124.68 48.13 124.587C48.2053 124.499 48.2655 124.357 48.3104 124.162L50.109 116.347C50.1528 116.156 50.1606 116.003 50.1323 115.886C50.1088 115.77 50.0627 115.677 49.9938 115.606C49.9308 115.531 49.8563 115.474 49.7703 115.434C49.689 115.396 49.6107 115.355 49.5353 115.313C49.4646 115.271 49.408 115.223 49.3655 115.168C49.3289 115.11 49.3226 115.028 49.3467 114.924C49.4091 114.652 49.5313 114.437 49.713 114.279C49.9007 114.117 50.1444 114.005 50.4441 113.944C50.7449 113.877 51.0993 113.861 51.5074 113.895C51.9155 113.929 52.3741 114.004 52.8833 114.122C53.44 114.25 53.859 114.389 54.1401 114.539C54.4261 114.69 54.6145 114.883 54.7054 115.12C54.8616 115.05 55.0358 114.99 55.2279 114.939C55.42 114.888 55.6308 114.854 55.8602 114.837C56.0956 114.816 56.349 114.814 56.6206 114.831C56.8969 114.85 57.1968 114.896 57.5204 114.971C58.001 115.081 58.411 115.248 58.7504 115.472C59.0898 115.695 59.3678 115.957 59.5842 116.257C59.8066 116.554 59.9715 116.883 60.0789 117.243C60.1911 117.605 60.2603 117.979 60.2866 118.366C60.3175 118.754 60.3125 119.146 60.2713 119.542C60.2302 119.938 60.1664 120.325 60.0799 120.7ZM53.4019 122.057C53.4931 122.118 53.5888 122.17 53.6891 122.213C53.7894 122.257 53.8943 122.291 54.0037 122.316C54.2702 122.377 54.4841 122.384 54.6455 122.336C54.808 122.283 54.9472 122.157 55.063 121.958C55.1789 121.76 55.2838 121.478 55.3776 121.114C55.4762 120.751 55.5902 120.289 55.7194 119.727C55.8552 119.137 55.9471 118.64 55.9951 118.235C56.0443 117.825 56.0481 117.493 56.0066 117.238C55.9662 116.978 55.8814 116.781 55.7521 116.646C55.6228 116.511 55.4487 116.418 55.2298 116.368C55.1442 116.348 55.0569 116.335 54.968 116.33C54.879 116.324 54.7956 116.328 54.7176 116.34C54.6932 116.49 54.6618 116.648 54.6235 116.814C54.5852 116.981 54.5436 117.162 54.4987 117.357L53.4019 122.057Z" fill="black"/>
<path d="M69.4105 117.541C69.2542 117.544 69.1086 117.584 68.9736 117.66C68.8385 117.732 68.7213 117.842 68.6221 117.991C68.5278 118.139 68.4539 118.329 68.4005 118.56C68.3519 118.786 68.3311 119.055 68.3382 119.367L70.674 119.314C70.6663 118.973 70.633 118.688 70.5741 118.459C70.5151 118.226 70.4328 118.043 70.3272 117.908C70.2215 117.769 70.0899 117.672 69.9323 117.617C69.7797 117.562 69.6057 117.536 69.4105 117.541ZM68.8262 115.678C69.4803 115.664 70.0708 115.748 70.5975 115.931C71.1291 116.115 71.5819 116.373 71.9557 116.707C72.3344 117.04 72.6267 117.436 72.8324 117.896C73.043 118.35 73.1542 118.843 73.1663 119.375C73.1713 119.595 73.1434 119.766 73.0827 119.89C73.0269 120.013 72.9435 120.105 72.8325 120.167C72.7216 120.228 72.5833 120.267 72.4176 120.286C72.252 120.304 72.0642 120.316 71.8543 120.321L68.3323 120.4C68.3444 120.937 68.408 121.373 68.523 121.707C68.6428 122.037 68.8024 122.292 69.0019 122.473C69.2013 122.654 69.4385 122.776 69.7134 122.838C69.9882 122.895 70.2916 122.92 70.6236 122.913C70.7993 122.909 70.9795 122.887 71.1643 122.849C71.3539 122.811 71.5335 122.763 71.7031 122.705C71.8777 122.647 72.0375 122.588 72.1826 122.526C72.3277 122.464 72.4485 122.405 72.5449 122.349C72.622 122.303 72.6972 122.28 72.7704 122.278C72.8827 122.275 72.9717 122.322 73.0373 122.418C73.1029 122.51 73.137 122.614 73.1396 122.731C73.1405 122.77 73.1389 122.807 73.1348 122.841C73.1307 122.875 73.1217 122.91 73.1078 122.944C72.9744 123.309 72.7892 123.647 72.5521 123.961C72.3149 124.274 72.0232 124.549 71.677 124.786C71.3354 125.019 70.9367 125.203 70.4807 125.341C70.0247 125.478 69.5111 125.553 68.94 125.566C68.3933 125.578 67.8915 125.526 67.4346 125.41C66.9825 125.288 66.5708 125.117 66.1995 124.895C65.833 124.669 65.5095 124.403 65.2291 124.097C64.9486 123.791 64.7139 123.457 64.525 123.095C64.336 122.728 64.1906 122.345 64.0888 121.947C63.9918 121.544 63.9386 121.137 63.9294 120.727C63.92 120.312 63.9571 119.901 64.0407 119.494C64.1241 119.082 64.2545 118.69 64.4317 118.32C64.6089 117.95 64.8332 117.608 65.1044 117.294C65.3756 116.975 65.6942 116.699 66.0601 116.466C66.4259 116.228 66.8393 116.041 67.3001 115.903C67.761 115.766 68.2697 115.691 68.8262 115.678Z" fill="black"/>
<path d="M84.1994 115.646C84.2798 115.537 84.3271 115.444 84.3411 115.369C84.3598 115.293 84.3618 115.229 84.347 115.177C84.3282 115.111 84.2701 115.059 84.1728 115.021C84.0756 114.983 83.9682 114.945 83.8508 114.908C83.7334 114.87 83.6247 114.828 83.5248 114.78C83.4235 114.728 83.36 114.657 83.3345 114.568C83.2632 114.319 83.2782 114.097 83.3793 113.9C83.4851 113.702 83.641 113.528 83.8468 113.378C84.0573 113.226 84.297 113.096 84.5658 112.989C84.8381 112.875 85.1056 112.781 85.3685 112.706C85.7675 112.591 86.1115 112.516 86.4006 112.478C86.6943 112.44 86.9421 112.445 87.144 112.494C87.3493 112.537 87.511 112.623 87.6291 112.751C87.752 112.879 87.8436 113.048 87.9041 113.259C87.9431 113.395 87.9452 113.509 87.9104 113.6C87.8756 113.691 87.8156 113.775 87.7305 113.85C87.6454 113.925 87.5418 113.998 87.4198 114.068C87.3024 114.138 87.1754 114.217 87.0386 114.307C86.9019 114.397 86.7644 114.502 86.6263 114.623C86.4916 114.738 86.3656 114.883 86.2484 115.059L85.4554 116.254L88.587 118.861C88.7467 118.993 88.9014 119.081 89.051 119.125C89.1992 119.164 89.3421 119.184 89.4796 119.185C89.6157 119.181 89.7445 119.17 89.8659 119.15C89.9859 119.126 90.0939 119.113 90.1898 119.111C90.2904 119.107 90.3746 119.127 90.4424 119.168C90.5135 119.204 90.5672 119.285 90.6035 119.411C90.6828 119.688 90.6921 119.942 90.6312 120.173C90.5703 120.404 90.4423 120.613 90.2473 120.801C90.0522 120.989 89.7914 121.16 89.4649 121.315C89.1384 121.469 88.7522 121.61 88.3062 121.738C87.7899 121.886 87.3694 121.978 87.0448 122.015C86.7189 122.048 86.4556 122.042 86.255 121.998C86.0531 121.949 85.8958 121.87 85.783 121.76C85.675 121.649 85.5746 121.52 85.482 121.374C85.3927 121.221 85.299 121.063 85.201 120.898C85.1016 120.728 84.9633 120.565 84.7861 120.407L83.2761 119.072C83.2567 119.058 83.2319 119.042 83.2017 119.025C83.1762 119.007 83.1349 118.996 83.0779 118.992C83.0242 118.982 82.9538 118.984 82.8666 118.999C82.7781 119.009 82.6658 119.034 82.5297 119.073L82.8967 120.354C82.9518 120.547 83.0207 120.69 83.1033 120.783C83.1858 120.876 83.2727 120.94 83.3639 120.975C83.4585 121.003 83.5538 121.017 83.6497 121.015C83.7443 121.008 83.8325 121.006 83.9143 121.008C84.0008 121.008 84.0766 121.025 84.1417 121.057C84.2054 121.084 84.2521 121.149 84.2817 121.253C84.4349 121.788 84.2689 122.254 83.7836 122.653C83.2969 123.046 82.5302 123.392 81.4834 123.692C80.9765 123.838 80.5201 123.938 80.1144 123.993C79.7087 124.048 79.3545 124.053 79.052 124.008C78.7481 123.958 78.4989 123.859 78.3043 123.712C78.1131 123.558 77.9791 123.348 77.9025 123.08C77.8729 122.977 77.8779 122.897 77.9174 122.84C77.9556 122.778 78.0089 122.724 78.0773 122.679C78.1456 122.635 78.2217 122.59 78.3055 122.546C78.3893 122.501 78.4614 122.442 78.5217 122.369C78.5807 122.291 78.6219 122.196 78.6453 122.083C78.6673 121.964 78.6508 121.809 78.5957 121.617L76.3287 113.703C76.2736 113.51 76.2061 113.372 76.1262 113.288C76.045 113.2 75.9594 113.14 75.8696 113.11C75.7783 113.076 75.6854 113.061 75.5908 113.068C75.4963 113.075 75.4081 113.077 75.3263 113.075C75.2444 113.074 75.1717 113.059 75.1079 113.031C75.0428 112.999 74.9955 112.932 74.9659 112.828C74.8893 112.561 74.8921 112.314 74.9745 112.087C75.0602 111.854 75.2193 111.638 75.4519 111.44C75.6832 111.236 75.9855 111.051 76.359 110.883C76.7325 110.715 77.1727 110.558 77.6797 110.413C78.1584 110.276 78.5477 110.19 78.8475 110.155C79.1506 110.113 79.3934 110.128 79.5759 110.197C79.7618 110.261 79.905 110.38 80.0058 110.554C80.1098 110.722 80.2022 110.947 80.2829 111.229L82.2029 117.932C82.3156 117.9 82.4017 117.873 82.4614 117.85C82.5245 117.822 82.5751 117.795 82.6133 117.769C82.6502 117.738 82.6833 117.703 82.7128 117.664C82.741 117.621 82.7788 117.567 82.8264 117.502L84.1994 115.646Z" fill="black"/>
<path d="M105.424 108.531C105.566 108.705 105.702 108.828 105.83 108.899C105.962 108.968 106.085 109.006 106.198 109.014C106.313 109.015 106.419 108.994 106.517 108.952C106.612 108.906 106.693 108.855 106.761 108.799C106.769 108.793 106.778 108.786 106.789 108.776C106.798 108.763 106.819 108.743 106.853 108.715C106.887 108.68 106.936 108.631 106.997 108.568C107.063 108.502 107.154 108.412 107.269 108.298L106.694 107.122C106.582 106.854 106.511 106.609 106.481 106.388C106.448 106.162 106.447 105.961 106.478 105.784C106.511 105.6 106.568 105.439 106.651 105.301C106.738 105.161 106.842 105.041 106.963 104.942C107.107 104.825 107.259 104.741 107.42 104.691C107.578 104.637 107.738 104.62 107.899 104.64C108.057 104.656 108.213 104.708 108.367 104.796C108.522 104.884 108.664 105.007 108.794 105.166C108.92 105.321 109.043 105.502 109.161 105.708C109.279 105.914 109.379 106.132 109.46 106.362C109.542 106.592 109.603 106.829 109.645 107.073C109.683 107.312 109.689 107.547 109.663 107.777C109.64 108.004 109.579 108.221 109.478 108.43C109.381 108.635 109.237 108.817 109.044 108.975L105.168 112.149C104.722 112.514 104.305 112.814 103.917 113.05C103.53 113.278 103.175 113.437 102.85 113.526C102.526 113.608 102.232 113.615 101.968 113.548C101.708 113.477 101.482 113.324 101.29 113.09C101.216 112.999 101.186 112.916 101.201 112.841C101.212 112.763 101.242 112.688 101.291 112.616C101.34 112.538 101.395 112.458 101.455 112.377C101.519 112.294 101.564 112.203 101.591 112.105C101.619 112 101.619 111.884 101.59 111.756C101.561 111.628 101.477 111.479 101.338 111.309L97.8389 107.036C97.7028 106.87 97.5749 106.76 97.4553 106.707C97.3327 106.649 97.2188 106.626 97.1137 106.636C97.0092 106.64 96.9096 106.665 96.8148 106.711C96.7238 106.754 96.6365 106.793 96.5531 106.83C96.4703 106.86 96.3907 106.875 96.3145 106.874C96.2351 106.87 96.1583 106.822 96.0841 106.732C95.8923 106.497 95.7888 106.248 95.7735 105.982C95.759 105.71 95.8255 105.425 95.9732 105.128C96.1215 104.823 96.3474 104.506 96.651 104.175C96.9552 103.838 97.3302 103.487 97.776 103.121C98.2369 102.744 98.6666 102.436 99.065 102.199C99.4604 101.957 99.8219 101.793 100.15 101.708C100.478 101.616 100.772 101.605 101.032 101.676C101.293 101.74 101.519 101.89 101.711 102.124C101.785 102.214 101.817 102.299 101.806 102.378C101.791 102.453 101.759 102.529 101.71 102.608C101.661 102.679 101.605 102.757 101.541 102.841C101.477 102.925 101.431 103.019 101.403 103.124C101.376 103.222 101.379 103.336 101.411 103.468C101.44 103.596 101.522 103.743 101.658 103.909L105.424 108.531Z" fill="black"/>
<path d="M117.409 99.637C117.067 100.107 116.698 100.499 116.3 100.814C115.905 101.125 115.499 101.369 115.079 101.548C114.659 101.719 114.232 101.829 113.799 101.876C113.367 101.924 112.943 101.917 112.528 101.857C112.109 101.794 111.706 101.683 111.321 101.524C110.936 101.365 110.579 101.166 110.251 100.928C109.916 100.684 109.616 100.403 109.352 100.085C109.088 99.7594 108.871 99.4057 108.702 99.0235C108.536 98.6373 108.424 98.2269 108.365 97.7921C108.307 97.3574 108.314 96.9037 108.386 96.4308C108.46 95.9541 108.605 95.4645 108.819 94.9622C109.032 94.453 109.328 93.9377 109.707 93.4163C110.04 92.9581 110.395 92.5766 110.773 92.272C111.155 91.9635 111.548 91.7212 111.953 91.5451C112.355 91.3661 112.762 91.251 113.173 91.1999C113.587 91.1447 113.995 91.1449 114.395 91.2003C114.795 91.2558 115.183 91.3622 115.557 91.5197C115.934 91.6731 116.285 91.8675 116.609 92.1029C116.945 92.3468 117.25 92.6323 117.526 92.9592C117.801 93.2861 118.029 93.645 118.21 94.0358C118.394 94.4227 118.524 94.8373 118.601 95.2795C118.678 95.7218 118.69 96.1831 118.637 96.6634C118.583 97.137 118.457 97.6253 118.261 98.1283C118.06 98.6285 117.776 99.1314 117.409 99.637ZM116.086 98.2683C116.18 98.1379 116.222 98.002 116.21 97.8606C116.197 97.7123 116.137 97.5574 116.032 97.3959C115.926 97.2345 115.778 97.0672 115.59 96.8943C115.398 96.7185 115.174 96.5373 114.917 96.3507C114.692 96.1871 114.453 96.0169 114.202 95.84C113.946 95.6603 113.692 95.4908 113.439 95.3315C113.183 95.1694 112.931 95.0257 112.684 94.9006C112.437 94.7754 112.204 94.6847 111.986 94.6284C111.77 94.5682 111.577 94.5516 111.406 94.5786C111.236 94.6056 111.099 94.6902 110.995 94.8324C110.895 94.9707 110.848 95.1179 110.856 95.2741C110.862 95.4234 110.911 95.5799 111.003 95.7436C111.096 95.9072 111.227 96.0752 111.398 96.2474C111.571 96.4157 111.775 96.5845 112.008 96.7538C112.225 96.9117 112.463 97.0785 112.721 97.2543C112.98 97.4301 113.244 97.5979 113.514 97.7579C113.78 97.915 114.046 98.0565 114.31 98.1824C114.578 98.3043 114.825 98.3963 115.051 98.4583C115.281 98.5164 115.485 98.5347 115.663 98.5135C115.844 98.4883 115.985 98.4065 116.086 98.2683Z" fill="black"/>
<path d="M117.769 82.268C117.665 82.2256 117.532 82.2818 117.368 82.4367C117.205 82.5916 117.044 82.8635 116.886 83.2523C116.805 83.4513 116.749 83.6187 116.72 83.7545C116.693 83.8858 116.685 83.9959 116.697 84.0849C116.708 84.1738 116.737 84.2438 116.785 84.2949C116.835 84.3415 116.898 84.3804 116.975 84.4117C117.124 84.4726 117.284 84.4537 117.456 84.355C117.624 84.2546 117.808 84.108 118.007 83.9153C118.209 83.718 118.424 83.4891 118.651 83.2285C118.879 82.968 119.125 82.7071 119.389 82.4459C119.65 82.1828 119.93 81.9357 120.229 81.7047C120.525 81.4717 120.84 81.2866 121.176 81.1491C121.508 81.0053 121.863 80.9256 122.238 80.9099C122.613 80.8942 123.009 80.9712 123.425 81.1407C123.936 81.349 124.329 81.6462 124.604 82.0325C124.876 82.4124 125.055 82.8411 125.14 83.3186C125.22 83.7942 125.217 84.2993 125.131 84.8337C125.047 85.3636 124.902 85.8817 124.695 86.3881C124.487 86.8991 124.228 87.3789 123.919 87.8275C123.616 88.2734 123.291 88.6499 122.944 88.9568C122.598 89.2637 122.243 89.4804 121.881 89.6068C121.518 89.7332 121.176 89.7309 120.855 89.6001C120.665 89.5227 120.512 89.426 120.396 89.3101C120.275 89.1923 120.189 89.0675 120.137 88.9357C120.083 88.7975 120.059 88.6559 120.065 88.5109C120.072 88.3659 120.102 88.2255 120.158 88.0899C120.246 87.8728 120.344 87.7044 120.451 87.5845C120.558 87.4646 120.669 87.3783 120.786 87.3255C120.899 87.2664 121.019 87.2309 121.145 87.2191C121.267 87.2054 121.392 87.1957 121.521 87.1902C121.65 87.1847 121.778 87.1738 121.906 87.1574C122.03 87.1392 122.152 87.0969 122.274 87.0306C122.392 86.9625 122.506 86.8617 122.619 86.7282C122.733 86.5902 122.839 86.4014 122.937 86.1617C123.093 85.7774 123.175 85.481 123.181 85.2725C123.188 85.0594 123.093 84.9124 122.894 84.8313C122.821 84.8018 122.724 84.8411 122.601 84.9491C122.475 85.0507 122.329 85.1944 122.164 85.3801C121.999 85.5658 121.811 85.7794 121.602 86.0211C121.393 86.2627 121.166 86.5024 120.921 86.7402C120.672 86.9761 120.407 87.2002 120.125 87.4123C119.839 87.6226 119.541 87.7912 119.231 87.9179C118.917 88.0428 118.587 88.1141 118.242 88.1317C117.9 88.1449 117.545 88.0769 117.179 87.9276C116.776 87.7635 116.437 87.5673 116.161 87.3388C115.881 87.1085 115.657 86.8563 115.489 86.5823C115.318 86.3019 115.2 86.0032 115.134 85.6864C115.068 85.3695 115.043 85.0429 115.059 84.7066C115.07 84.3684 115.121 84.0251 115.21 83.6766C115.295 83.3263 115.408 82.977 115.55 82.6288C115.795 82.0275 116.062 81.535 116.35 81.1516C116.638 80.7681 116.926 80.4744 117.215 80.2704C117.506 80.062 117.789 79.9373 118.064 79.8965C118.334 79.8539 118.576 79.8758 118.788 79.9625C118.937 80.0233 119.067 80.113 119.177 80.2316C119.284 80.3438 119.363 80.479 119.415 80.6371C119.466 80.7952 119.487 80.9699 119.478 81.1611C119.469 81.3524 119.42 81.5566 119.331 81.7736C119.232 82.0178 119.136 82.2134 119.045 82.3606C118.955 82.5033 118.868 82.6129 118.784 82.6894C118.697 82.7596 118.615 82.7999 118.537 82.8102C118.454 82.8188 118.372 82.8064 118.291 82.7733C118.21 82.7401 118.154 82.7016 118.124 82.6579C118.095 82.6142 118.067 82.5714 118.042 82.5295C118.015 82.4813 117.984 82.4344 117.949 82.3888C117.915 82.3433 117.855 82.303 117.769 82.268Z" fill="black"/>
<path d="M128.56 71.9457C128.476 72.5206 128.33 73.0397 128.124 73.5029C127.919 73.9613 127.672 74.3667 127.383 74.7192C127.09 75.0661 126.763 75.3611 126.402 75.6041C126.04 75.8472 125.662 76.0383 125.266 76.1777C124.866 76.3163 124.458 76.4045 124.043 76.4422C123.628 76.48 123.22 76.4694 122.819 76.4106C122.408 76.3503 122.012 76.2403 121.631 76.0807C121.246 75.9156 120.889 75.7029 120.562 75.4427C120.236 75.1776 119.946 74.8661 119.693 74.5081C119.439 74.1501 119.235 73.745 119.079 73.2928C118.924 72.8357 118.825 72.3351 118.782 71.7907C118.734 71.2409 118.757 70.6471 118.851 70.0094C118.933 69.449 119.071 68.9462 119.265 68.5008C119.459 68.0506 119.695 67.6535 119.973 67.3093C120.245 66.9644 120.552 66.6738 120.893 66.4376C121.234 66.1965 121.595 66.0077 121.975 65.8711C122.355 65.7344 122.748 65.6489 123.153 65.6146C123.558 65.5754 123.959 65.5849 124.355 65.6431C124.766 65.7034 125.169 65.8144 125.565 65.9761C125.961 66.1379 126.329 66.3499 126.671 66.6123C127.013 66.8698 127.321 67.1765 127.594 67.5325C127.868 67.8885 128.092 68.2916 128.268 68.7419C128.44 69.1865 128.555 69.6773 128.614 70.214C128.669 70.7501 128.651 71.3273 128.56 71.9457ZM126.753 71.3473C126.776 71.1878 126.75 71.0482 126.674 70.9285C126.593 70.8032 126.469 70.6936 126.3 70.5997C126.131 70.5058 125.923 70.426 125.676 70.3601C125.424 70.2935 125.142 70.2372 124.828 70.1911C124.552 70.1506 124.262 70.1105 123.957 70.0707C123.647 70.0301 123.343 69.9978 123.046 69.9739C122.743 69.9492 122.454 69.9388 122.177 69.9426C121.9 69.9463 121.652 69.974 121.432 70.0256C121.213 70.0724 121.034 70.1474 120.895 70.2504C120.757 70.3535 120.675 70.4919 120.649 70.6658C120.625 70.8349 120.652 70.987 120.73 71.1219C120.805 71.2513 120.921 71.3671 121.079 71.4692C121.237 71.5714 121.431 71.6591 121.662 71.7325C121.894 71.8011 122.153 71.8563 122.438 71.8981C122.703 71.9372 122.991 71.9745 123.302 72.0103C123.613 72.046 123.925 72.0721 124.238 72.0885C124.547 72.1042 124.847 72.1064 125.14 72.0951C125.434 72.0789 125.695 72.0458 125.925 71.9956C126.155 71.9405 126.344 71.8622 126.492 71.7606C126.641 71.6541 126.728 71.5163 126.753 71.3473Z" fill="black"/>
<path d="M120.167 47.3463C120.112 47.1387 120.029 46.9814 119.92 46.8742C119.804 46.7636 119.664 46.6924 119.499 46.6608C119.334 46.6292 119.144 46.6293 118.93 46.6612C118.712 46.6944 118.47 46.7464 118.206 46.817C117.923 46.8927 117.673 46.9797 117.457 47.078C117.235 47.1729 117.058 47.2883 116.928 47.4243C116.793 47.5615 116.704 47.7217 116.662 47.9048C116.62 48.0878 116.633 48.3044 116.7 48.5544C116.753 48.7525 116.832 48.8981 116.938 48.9911C117.038 49.0806 117.156 49.135 117.292 49.1541C117.424 49.1744 117.571 49.1678 117.734 49.1344C117.897 49.1009 118.066 49.0608 118.24 49.0141L120.384 48.4407C120.392 48.4133 120.389 48.3559 120.376 48.2685C120.367 48.1952 120.348 48.0865 120.319 47.9425C120.286 47.7997 120.235 47.601 120.167 47.3463ZM121.342 47.0321C121.41 47.2868 121.468 47.4837 121.515 47.6227C121.558 47.7629 121.593 47.8671 121.621 47.9354C121.658 48.0165 121.685 48.0676 121.7 48.0886L123.844 47.5152C124.019 47.4685 124.185 47.419 124.343 47.3666C124.501 47.3143 124.634 47.2458 124.743 47.1611C124.847 47.0777 124.922 46.9716 124.968 46.8429C125.009 46.7108 125.003 46.5457 124.95 46.3476C124.883 46.0976 124.785 45.9037 124.658 45.7661C124.53 45.6284 124.375 45.5332 124.195 45.4805C124.009 45.4291 123.799 45.4171 123.563 45.4447C123.322 45.4688 123.058 45.5193 122.77 45.5963C122.506 45.6669 122.273 45.7418 122.072 45.8209C121.866 45.9013 121.702 45.9958 121.579 46.1044C121.452 46.2142 121.368 46.3453 121.328 46.4976C121.282 46.6464 121.286 46.8246 121.342 47.0321ZM127.453 49.158C127.602 49.7146 127.703 50.2181 127.758 50.6685C127.807 51.1154 127.805 51.5051 127.753 51.8376C127.694 52.1666 127.579 52.4374 127.409 52.6498C127.237 52.8575 127.005 53.0005 126.712 53.0787C126.599 53.109 126.511 53.1021 126.449 53.0582C126.382 53.0154 126.326 52.9571 126.281 52.8833C126.23 52.8059 126.18 52.7232 126.131 52.6352C126.081 52.5425 126.017 52.4636 125.939 52.3985C125.855 52.33 125.749 52.2826 125.62 52.2563C125.492 52.23 125.322 52.2452 125.109 52.302L119.775 53.729C119.567 53.7845 119.414 53.8557 119.316 53.9426C119.213 54.0308 119.145 54.1249 119.111 54.2249C119.071 54.3215 119.053 54.4225 119.056 54.5278C119.057 54.6285 119.058 54.7244 119.057 54.8156C119.05 54.9034 119.031 54.9819 118.999 55.0511C118.962 55.1216 118.887 55.172 118.774 55.2023C118.481 55.2805 118.211 55.2719 117.963 55.1765C117.709 55.0776 117.477 54.8996 117.267 54.6425C117.05 54.3819 116.854 54.0452 116.678 53.6323C116.496 53.216 116.33 52.7296 116.182 52.173L115.173 48.4018C114.962 47.614 114.824 46.9281 114.759 46.3441C114.688 45.7566 114.672 45.2529 114.711 44.833C114.75 44.4131 114.836 44.064 114.969 43.7859C115.101 43.503 115.264 43.2723 115.459 43.0939C115.648 42.9119 115.86 42.7716 116.097 42.673C116.327 42.5709 116.563 42.4877 116.803 42.4233C117.082 42.3489 117.336 42.3187 117.568 42.3326C117.799 42.3466 118.011 42.3935 118.204 42.4732C118.397 42.553 118.573 42.6602 118.73 42.795C118.881 42.9264 119.019 43.074 119.144 43.2377C119.263 43.3981 119.367 43.5699 119.456 43.7532C119.546 43.9365 119.619 44.1165 119.677 44.2932C119.611 43.952 119.583 43.603 119.594 43.2464C119.603 42.885 119.681 42.5432 119.827 42.221C119.968 41.8953 120.193 41.6026 120.502 41.3429C120.807 41.0844 121.224 40.8845 121.752 40.7432C122.045 40.665 122.338 40.6294 122.633 40.6364C122.928 40.6434 123.221 40.7091 123.513 40.8334C123.798 40.9543 124.08 41.1415 124.36 41.3951C124.634 41.6453 124.902 41.9755 125.164 42.3857C125.425 42.796 125.677 43.2947 125.92 43.8817C126.157 44.4653 126.381 45.1509 126.592 45.9387L127.453 49.158Z" fill="black"/>
<path d="M119.1 32.3018C119.018 32.163 118.932 32.064 118.84 32.0047C118.742 31.9436 118.639 31.9135 118.532 31.9144C118.42 31.9177 118.302 31.9478 118.177 32.0046C118.045 32.0597 117.903 32.1319 117.752 32.2212C117.621 32.2981 117.456 32.3982 117.257 32.5214C117.058 32.6447 116.862 32.7655 116.671 32.8838C116.449 33.0261 116.217 33.1713 115.976 33.3194C116.002 33.3832 116.029 33.4437 116.057 33.5009C116.079 33.5563 116.104 33.6093 116.134 33.6597C116.261 33.8742 116.411 34.0291 116.587 34.1242C116.755 34.2176 116.943 34.2626 117.151 34.2591C117.354 34.2582 117.572 34.2146 117.805 34.1284C118.031 34.0406 118.266 33.9247 118.51 33.7808C118.657 33.694 118.793 33.6025 118.918 33.5063C119.038 33.4126 119.131 33.3066 119.198 33.1881C119.26 33.0722 119.288 32.9422 119.282 32.7981C119.27 32.6523 119.209 32.4869 119.1 32.3018ZM118.6 28.4982C118.727 28.7127 118.843 28.9334 118.948 29.1604C119.047 29.3855 119.118 29.6159 119.16 29.8516C119.2 30.083 119.2 30.3183 119.16 30.5575C119.12 30.7967 119.021 31.0388 118.865 31.2838C119.113 31.2514 119.366 31.2864 119.625 31.3889C119.881 31.4871 120.13 31.6263 120.373 31.8066C120.608 31.985 120.827 32.1931 121.03 32.4308C121.234 32.6618 121.407 32.8972 121.548 33.137C121.799 33.5618 121.968 33.9638 122.055 34.3429C122.143 34.7221 122.159 35.0756 122.103 35.4035C122.042 35.7338 121.914 36.0305 121.718 36.2936C121.521 36.5568 121.261 36.7838 120.937 36.9748C120.555 37.2005 120.156 37.3507 119.741 37.4254C119.319 37.4984 118.889 37.4571 118.452 37.3013C118.012 37.1414 117.565 36.8461 117.113 36.4156C116.657 35.9876 116.199 35.3845 115.74 34.6064L115.23 33.742C114.764 34.0174 114.386 34.2624 114.099 34.4771C113.81 34.6876 113.594 34.8798 113.453 35.0537C113.312 35.2277 113.235 35.3862 113.223 35.5293C113.211 35.6724 113.247 35.8155 113.332 35.9585C113.426 36.1183 113.554 36.2244 113.715 36.2767C113.874 36.3248 114.066 36.3279 114.29 36.2861C114.508 36.2425 114.756 36.1586 115.035 36.0342C115.306 35.9082 115.606 35.7484 115.934 35.555C116.04 35.7358 116.151 35.9284 116.266 36.1328C116.374 36.3354 116.474 36.5431 116.565 36.7556C116.654 36.964 116.725 37.1714 116.779 37.3778C116.826 37.5825 116.845 37.7781 116.836 37.9648C116.823 38.154 116.771 38.3294 116.679 38.4912C116.587 38.653 116.443 38.7921 116.245 38.9087C115.967 39.0724 115.662 39.1559 115.33 39.1592C114.995 39.1584 114.647 39.0632 114.286 38.8737C113.918 38.6825 113.543 38.3878 113.161 37.9896C112.774 37.5939 112.393 37.0764 112.016 36.4371C111.577 35.6926 111.274 35.0066 111.108 34.3789C110.942 33.7513 110.909 33.1757 111.008 32.6522C111.105 32.1246 111.336 31.6423 111.702 31.2054C112.062 30.7669 112.55 30.3653 113.169 30.0007L115.402 28.6837C115.583 28.577 115.71 28.4708 115.784 28.365C115.855 28.255 115.898 28.1502 115.913 28.0507C115.921 27.9494 115.911 27.8505 115.883 27.754C115.854 27.6575 115.833 27.5681 115.818 27.486C115.797 27.4021 115.794 27.3246 115.809 27.2535C115.817 27.1807 115.867 27.117 115.96 27.0625C116.38 26.8144 116.82 26.8103 117.279 27.0499C117.731 27.2878 118.171 27.7706 118.6 28.4982Z" fill="black"/>
<path d="M108.169 20.4273C108.315 20.2896 108.409 20.1626 108.454 20.0463C108.498 19.93 108.515 19.8234 108.504 19.7264C108.489 19.6328 108.459 19.5439 108.412 19.4598C108.359 19.3755 108.315 19.2966 108.279 19.2231C108.243 19.1496 108.224 19.0766 108.222 19.004C108.217 18.9348 108.254 18.8632 108.332 18.7893C108.736 18.4062 109.226 18.338 109.803 18.5847C110.377 18.8347 111.038 19.3547 111.788 20.1447C112.147 20.5237 112.445 20.8804 112.682 21.2148C112.918 21.5492 113.086 21.861 113.185 22.1503C113.281 22.4429 113.309 22.7096 113.268 22.9503C113.22 23.1908 113.095 23.4068 112.893 23.5984C112.815 23.6723 112.744 23.7067 112.678 23.7015C112.606 23.6961 112.534 23.6735 112.462 23.6336C112.388 23.5902 112.313 23.5433 112.238 23.493C112.16 23.4391 112.075 23.4024 111.982 23.3826C111.882 23.3627 111.779 23.3704 111.671 23.4055C111.556 23.4405 111.426 23.5268 111.28 23.6646L105.308 29.3301C105.162 29.4679 105.071 29.5916 105.034 29.7011C104.989 29.8104 104.976 29.9137 104.994 30.0109C105.006 30.1079 105.036 30.1968 105.086 30.2775C105.132 30.3547 105.175 30.4319 105.214 30.5089C105.25 30.5824 105.271 30.6537 105.276 30.7229C105.274 30.792 105.234 30.8634 105.156 30.9374C104.954 31.1289 104.734 31.2405 104.495 31.2722C104.249 31.3037 103.984 31.2622 103.7 31.1476C103.413 31.0364 103.109 30.8539 102.787 30.6002C102.466 30.3465 102.125 30.0301 101.766 29.6511C101.403 29.2685 101.137 28.9489 100.967 28.6923C100.798 28.4357 100.709 28.2071 100.701 28.0065C100.685 27.8058 100.744 27.6157 100.876 27.4361C101.005 27.253 101.19 27.0472 101.431 26.8187L108.169 20.4273Z" fill="black"/>
<path d="M100.354 12.5056C100.22 12.4166 100.098 12.3654 99.99 12.3521C99.8749 12.3402 99.7693 12.3581 99.6733 12.4057C99.5745 12.4574 99.4813 12.5362 99.3935 12.642C99.299 12.7492 99.2031 12.8761 99.106 13.0226C99.0223 13.1487 98.9177 13.3108 98.7923 13.5088C98.6668 13.7068 98.544 13.9008 98.4239 14.0907C98.2864 14.3158 98.1413 14.5477 97.9889 14.7865C98.0404 14.8324 98.0913 14.8749 98.1415 14.9141C98.185 14.9546 98.2311 14.991 98.2799 15.0234C98.4875 15.1611 98.6908 15.2344 98.8899 15.2434C99.0822 15.2538 99.271 15.212 99.4563 15.1181C99.6389 15.0283 99.816 14.8938 99.9876 14.7146C100.152 14.5368 100.313 14.3299 100.47 14.0939C100.564 13.9515 100.646 13.8098 100.716 13.6687C100.784 13.5318 100.821 13.3956 100.829 13.2602C100.834 13.1288 100.803 12.9995 100.735 12.8724C100.66 12.7466 100.533 12.6244 100.354 12.5056ZM98.2418 9.30316C98.4493 9.44079 98.6501 9.5886 98.8442 9.74658C99.0314 9.90594 99.1957 10.0823 99.337 10.2756C99.4743 10.4662 99.577 10.6779 99.6453 10.9107C99.7136 11.1434 99.7311 11.4041 99.698 11.6926C99.9062 11.5553 100.149 11.4762 100.427 11.4552C100.7 11.4316 100.985 11.4478 101.282 11.504C101.572 11.5615 101.86 11.6529 102.146 11.7782C102.431 11.8967 102.689 12.0328 102.921 12.1866C103.332 12.4592 103.66 12.7469 103.904 13.0496C104.149 13.3524 104.317 13.6635 104.41 13.9829C104.5 14.3063 104.515 14.6293 104.453 14.9517C104.392 15.2742 104.257 15.5921 104.049 15.9054C103.804 16.2757 103.51 16.5852 103.17 16.8338C102.822 17.0839 102.418 17.2345 101.956 17.2857C101.49 17.3342 100.96 17.2637 100.365 17.0742C99.7673 16.8887 99.0921 16.5464 98.3393 16.0471L97.503 15.4925C97.2035 15.9442 96.9715 16.3294 96.807 16.648C96.6385 16.964 96.5288 17.231 96.4778 17.4492C96.4269 17.6673 96.4273 17.8434 96.4791 17.9773C96.5309 18.1113 96.6259 18.2241 96.7643 18.3159C96.9189 18.4184 97.0802 18.458 97.248 18.4346C97.4118 18.4084 97.5857 18.3274 97.7695 18.1916C97.9466 18.0571 98.1331 17.8731 98.3289 17.6397C98.5179 17.4077 98.7177 17.133 98.9282 16.8156C99.1032 16.9316 99.287 17.0565 99.4796 17.1901C99.6654 17.325 99.8459 17.4682 100.021 17.6194C100.192 17.768 100.347 17.9233 100.485 18.0855C100.617 18.2491 100.72 18.4167 100.793 18.5886C100.864 18.7644 100.894 18.9452 100.882 19.1307C100.87 19.3163 100.801 19.5047 100.674 19.6959C100.496 19.9645 100.258 20.173 99.9604 20.3213C99.6588 20.4669 99.3041 20.5335 98.8964 20.5209C98.482 20.5097 98.0159 20.4086 97.4981 20.2175C96.9776 20.0305 96.4081 19.7319 95.7896 19.3217C95.0694 18.844 94.4974 18.3592 94.0737 17.8673C93.65 17.3754 93.3684 16.8723 93.2291 16.358C93.0856 15.841 93.083 15.3061 93.2211 14.7532C93.3525 14.2017 93.6166 13.6269 94.0133 13.0287L95.4463 10.8679C95.5624 10.693 95.6304 10.5418 95.6504 10.4144C95.6663 10.2844 95.6593 10.1713 95.6293 10.0753C95.5925 9.98055 95.5401 9.89604 95.4723 9.82171C95.4044 9.74739 95.346 9.67644 95.297 9.60884C95.2414 9.54262 95.2046 9.47431 95.1869 9.40394C95.1623 9.33493 95.1797 9.25566 95.2391 9.16614C95.509 8.75922 95.9026 8.56326 96.42 8.57827C96.9306 8.59465 97.5378 8.83628 98.2418 9.30316Z" fill="black"/>
<path d="M86.3091 16.7899C86.2232 17.0185 86.1096 17.2027 85.9684 17.3426C85.8209 17.4854 85.6622 17.5953 85.4924 17.6724C85.3164 17.7523 85.1329 17.8033 84.942 17.8255C84.7448 17.8505 84.5545 17.8572 84.371 17.8457C84.1876 17.8341 84.017 17.8092 83.8593 17.7708C83.6953 17.7352 83.5562 17.696 83.4419 17.6531C83.3185 17.6067 83.1834 17.5429 83.0366 17.4616C82.8835 17.3832 82.7341 17.288 82.5884 17.1759C82.4428 17.0638 82.3063 16.9343 82.1789 16.7873C82.0498 16.6449 81.9477 16.4866 81.8723 16.3122C81.7907 16.1407 81.746 15.9544 81.7381 15.7532C81.7239 15.5549 81.7598 15.3415 81.8457 15.1129C81.9298 14.8889 82.0434 14.7047 82.1863 14.5602C82.3247 14.414 82.4811 14.3032 82.6555 14.2279C82.8252 14.1509 83.0064 14.099 83.199 14.0722C83.3899 14.0501 83.5771 14.0448 83.7605 14.0563C83.944 14.0678 84.12 14.0922 84.2886 14.1295C84.4508 14.1696 84.5937 14.2129 84.7171 14.2592C84.8314 14.3022 84.9628 14.362 85.1113 14.4386C85.2535 14.5182 85.3975 14.614 85.5432 14.7261C85.6888 14.8382 85.8285 14.9663 85.9621 15.1104C86.0895 15.2573 86.1939 15.4166 86.2755 15.5881C86.3526 15.7579 86.4005 15.9428 86.4192 16.1428C86.4317 16.3457 86.3949 16.5614 86.3091 16.7899ZM85.3015 6.56076C85.3702 6.37793 85.3983 6.22679 85.3858 6.10734C85.3733 5.98789 85.3408 5.887 85.2882 5.80467C85.2294 5.7252 85.16 5.66001 85.0801 5.60909C85.0001 5.55818 84.9278 5.50755 84.8633 5.45722C84.7942 5.40517 84.7431 5.34685 84.7099 5.28225C84.6751 5.22222 84.6766 5.14193 84.7144 5.04137C84.9102 4.52029 85.3215 4.24453 85.9485 4.21407C86.5737 4.18818 87.396 4.36672 88.4153 4.7497C88.9089 4.93517 89.3351 5.12661 89.6939 5.324C90.0527 5.52139 90.34 5.72846 90.5559 5.94519C90.77 6.16649 90.9113 6.39432 90.9798 6.62867C91.0419 6.86588 91.024 7.11476 90.9261 7.37529C90.8884 7.47585 90.8366 7.53725 90.7709 7.5595C90.7034 7.58632 90.6288 7.59741 90.5471 7.59279C90.4654 7.58816 90.3777 7.57868 90.284 7.56433C90.1902 7.54999 90.0974 7.55421 90.0053 7.57701C89.9116 7.60439 89.8216 7.65662 89.7352 7.73372C89.6472 7.81538 89.5679 7.94992 89.4975 8.13732L88.1219 11.7986C88.0532 11.9814 88.0251 12.1325 88.0376 12.252C88.0501 12.3714 88.0834 12.47 88.1377 12.5478C88.1902 12.6301 88.2565 12.6967 88.3364 12.7476C88.4164 12.7986 88.4887 12.8492 88.5532 12.8995C88.6178 12.9499 88.6675 13.005 88.7023 13.0651C88.7354 13.1297 88.733 13.2122 88.6953 13.3128C88.5974 13.5733 88.4478 13.7701 88.2465 13.9031C88.039 14.039 87.7826 14.1174 87.4775 14.1384C87.1706 14.1639 86.8171 14.1328 86.4171 14.0451C86.0171 13.9574 85.5703 13.8209 85.0767 13.6354C84.583 13.4499 84.2039 13.2788 83.9394 13.122C83.6749 12.9653 83.495 12.7986 83.3997 12.6219C83.2981 12.4481 83.2676 12.2515 83.3084 12.0321C83.3491 11.8127 83.4278 11.5475 83.5446 11.2367L85.3015 6.56076Z" fill="black"/>
</svg>
